<svg xmlns="http://www.w3.org/2000/svg" viewBox="0 0 1024 1024">
  <rect width="1024" height="1024" fill="#000000"/>
  <path d="M 420 440 
           C 420 400 440 380 480 380
           L 1040 380
           C 1080 380 1100 400 1100 440
           L 1100 580
           C 1100 620 1080 640 1040 640
           L 700 640
           L 1040 880
           C 1080 880 1100 900 1100 940
           L 1100 1080
           C 1100 1120 1080 1140 1040 1140
           L 480 1140
           C 440 1140 420 1120 420 1080
           L 420 940
           C 420 900 440 880 480 880
           L 820 880
           L 480 640
           C 440 640 420 620 420 580
           L 420 440
           Z
           M 420 1080
           L 240 1280
           L 420 1140
           Z" 
        fill="#FF9933" 
        transform="scale(0.45) translate(50, -150)"/>
</svg>
