<?xml version="1.0" standalone="no"?>
<!DOCTYPE svg PUBLIC "-//W3C//DTD SVG 20010904//EN"
 "http://www.w3.org/TR/2001/REC-SVG-20010904/DTD/svg10.dtd">
<svg version="1.0" xmlns="http://www.w3.org/2000/svg"
 width="3264.000000pt" height="3264.000000pt" viewBox="0 0 3264.000000 3264.000000"
 preserveAspectRatio="xMidYMid meet">

<g transform="translate(0.000000,3264.000000) scale(0.100000,-0.100000)"
fill="currentColor" stroke="none">
<path d="M3835 18749 c-97 -9 -208 -35 -270 -64 -16 -7 -51 -22 -76 -33 -107
-45 -287 -192 -366 -297 -65 -86 -136 -234 -184 -380 -11 -32 -14 -247 -17
-1030 -2 -544 0 -1014 3 -1044 8 -65 41 -104 103 -120 50 -14 95 2 196 68 38
25 83 55 100 65 17 11 63 40 101 66 62 42 116 74 260 160 118 70 237 138 300
172 80 44 571 288 578 288 3 0 63 27 133 61 71 33 149 69 174 80 25 11 59 26
75 34 17 7 84 36 150 65 66 29 143 63 170 76 28 12 104 46 170 75 113 48 165
72 310 139 33 15 87 40 120 54 93 42 131 61 250 119 153 75 348 177 362 189 6
5 56 32 110 60 54 27 105 56 113 62 8 7 35 23 59 35 24 12 80 46 125 75 44 29
95 61 111 71 74 45 457 331 569 424 44 36 124 108 178 159 55 50 103 92 108
92 11 0 75 97 85 129 10 32 -2 84 -25 109 -11 11 -37 26 -57 32 -49 14 -3872
23 -4018 9z"/>
<path d="M9034 18484 c-22 -15 -50 -41 -61 -58 -12 -17 -65 -81 -119 -142 -55
-61 -110 -124 -124 -140 -68 -76 -428 -411 -505 -470 -22 -16 -55 -43 -75 -61
-56 -50 -121 -100 -183 -140 -31 -21 -88 -61 -125 -88 -86 -65 -307 -211 -395
-261 -38 -21 -83 -48 -100 -58 -18 -11 -84 -46 -147 -78 -63 -32 -119 -63
-125 -68 -21 -17 -540 -270 -555 -270 -5 0 -40 -16 -79 -35 -38 -19 -72 -35
-75 -35 -3 0 -43 -18 -88 -39 -46 -22 -112 -51 -148 -66 -86 -35 -141 -60
-223 -101 -37 -19 -74 -34 -83 -34 -8 0 -61 -22 -117 -49 -57 -26 -134 -62
-172 -79 -39 -17 -83 -38 -100 -46 -16 -9 -33 -16 -37 -16 -7 0 -87 -36 -243
-110 -213 -101 -488 -242 -607 -311 -37 -22 -90 -52 -119 -67 -28 -15 -63 -33
-77 -41 -29 -16 -187 -117 -372 -240 -101 -67 -318 -226 -450 -330 -141 -111
-391 -335 -426 -382 -48 -62 -104 -169 -148 -284 l-31 -80 -3 -1376 c-1 -881
1 -1386 7 -1402 6 -14 22 -34 36 -43 22 -14 29 -15 51 -4 39 21 88 71 126 125
161 237 413 546 650 797 157 166 235 242 384 373 43 39 84 75 89 82 6 6 102
83 214 172 204 160 366 276 536 383 49 31 128 80 174 110 46 29 118 71 160 93
42 22 123 67 181 100 106 60 416 216 545 275 97 44 135 62 250 115 55 26 122
56 150 67 67 26 280 121 385 170 47 22 101 46 120 53 19 7 71 29 115 50 149
70 161 75 167 75 6 0 112 49 318 147 216 103 245 118 302 149 31 18 66 35 78
39 11 4 44 22 73 41 28 19 55 34 60 34 11 0 165 88 206 118 18 13 64 41 101
61 76 40 301 190 396 263 34 27 66 48 70 48 24 0 194 182 194 207 0 5 15 31
33 59 30 45 65 138 82 218 3 16 6 592 7 1281 1 1222 0 1254 -19 1287 -26 45
-72 49 -129 12z"/>
<path d="M10890 17661 c-69 -22 -122 -66 -156 -131 -23 -44 -32 -286 -15 -373
16 -76 59 -132 124 -163 l52 -24 976 0 c537 0 978 -3 982 -6 3 -4 -323 -333
-726 -732 -1094 -1084 -1239 -1231 -1282 -1296 -21 -32 -49 -92 -62 -133 -21
-68 -23 -90 -23 -291 0 -243 7 -272 71 -326 78 -66 -46 -61 1584 -61 1671 0
1534 -7 1613 79 55 59 65 113 60 301 -4 164 -15 200 -75 257 -64 61 -8 58
-1102 58 -554 0 -1002 4 -1005 9 -3 4 38 50 92 102 53 51 255 247 447 434 193
187 601 585 907 883 307 299 573 562 591 585 48 59 83 123 101 186 21 73 23
455 3 504 -20 47 -64 95 -111 120 l-41 22 -1490 2 c-819 1 -1501 -2 -1515 -6z"/>
<path d="M18415 17660 c-632 -39 -1050 -247 -1277 -635 -85 -145 -62 -64 -672
-2376 -47 -179 -86 -343 -86 -366 0 -47 30 -97 78 -129 44 -30 129 -37 407
-32 187 4 239 8 277 22 58 22 142 95 168 147 11 21 45 132 76 246 31 114 70
260 88 323 l31 115 878 3 877 2 0 -329 c0 -368 3 -387 67 -453 67 -68 92 -73
403 -73 261 0 277 1 320 21 58 28 98 67 121 118 18 39 19 101 19 1627 0 1780
6 1643 -75 1718 -23 22 -60 44 -81 50 -45 12 -1420 13 -1619 1z m843 -1337 l2
-643 -785 0 c-432 0 -785 1 -785 3 0 2 36 136 81 298 44 162 96 353 115 424
48 175 90 258 180 353 107 114 230 179 376 201 35 5 232 8 438 7 l375 -1 3
-642z"/>
<path d="M21064 17656 c-57 -18 -102 -54 -132 -106 l-27 -45 0 -1605 0 -1605
22 -41 c25 -47 71 -89 123 -113 29 -13 79 -16 310 -16 241 0 281 2 322 18 57
22 123 91 137 143 7 24 11 154 11 330 l0 292 703 5 c408 3 738 10 787 16 607
77 979 363 1124 863 42 145 59 285 59 483 -1 369 -68 635 -218 861 -190 285
-484 444 -950 515 -121 19 -2214 23 -2271 5z m1872 -697 c225 -23 371 -77 475
-179 94 -92 141 -211 158 -401 31 -328 -74 -571 -291 -674 -174 -83 -327 -97
-983 -93 l-460 3 -3 665 c-1 366 0 671 3 678 6 16 940 17 1101 1z"/>
<path d="M25128 17658 c-47 -13 -113 -69 -141 -122 l-22 -41 0 -1580 c0 -869
3 -1596 8 -1616 11 -54 69 -123 124 -150 46 -23 59 -24 294 -27 269 -4 341 4
401 43 20 13 50 46 65 72 l28 48 5 310 5 310 700 6 c756 7 820 11 1036 65 597
150 910 558 936 1219 18 476 -100 851 -346 1096 -192 191 -441 302 -800 356
-92 14 -252 17 -1181 19 -695 2 -1088 -1 -1112 -8z m1863 -699 c238 -24 367
-71 475 -171 73 -69 113 -140 145 -263 31 -117 32 -367 1 -477 -28 -103 -64
-171 -124 -234 -89 -95 -194 -145 -373 -180 -113 -23 -1203 -33 -1216 -13 -10
16 -12 1308 -3 1333 5 14 59 16 499 16 273 0 539 -5 596 -11z"/>
<path d="M14187 15966 c-95 -34 -110 -78 -105 -309 3 -192 6 -203 72 -251 27
-21 35 -21 997 -24 948 -2 971 -2 1015 17 36 16 49 29 65 66 18 41 20 63 17
230 -3 201 -6 210 -72 259 -27 21 -35 21 -989 23 -795 2 -969 0 -1000 -11z"/>
<path d="M8864 14443 c-222 -116 -385 -197 -624 -310 -242 -114 -296 -139
-457 -206 -45 -18 -88 -38 -95 -43 -7 -6 -31 -18 -53 -27 -22 -9 -114 -48
-205 -88 -91 -39 -203 -87 -250 -106 -47 -19 -92 -41 -101 -49 -8 -8 -20 -14
-26 -14 -32 0 -754 -346 -858 -411 -22 -14 -67 -39 -100 -56 -33 -17 -78 -42
-100 -58 -22 -15 -66 -40 -98 -56 -70 -36 -127 -71 -342 -212 -181 -119 -203
-137 -237 -189 -23 -35 -22 -67 1 -97 14 -19 34 -27 87 -35 98 -16 2925 -4
2974 12 19 6 67 22 105 35 337 116 547 334 665 692 l33 100 1 465 c2 638 -1
660 -85 694 -72 29 -115 22 -235 -41z"/>
</g>
</svg>
