<svg width="32" height="32" viewBox="0 0 32 32" fill="none" xmlns="http://www.w3.org/2000/svg">
  <rect width="32" height="32" fill="#000000"/>
  <path d="M8 6C8 5.44772 8.44772 5 9 5H23C23.5523 5 24 5.44772 24 6V10C24 10.3788 23.786 10.7251 23.4472 10.8944L12 17.2361V20C12 20.5523 11.5523 21 11 21H9C8.44772 21 8 20.5523 8 20V16C8 15.6212 8.21404 15.2749 8.55279 15.1056L20 8.76393V7H9C8.44772 7 8 6.55228 8 6Z" fill="#FF9933"/>
  <path d="M8 16V20C8 20.5523 8.44772 21 9 21H11C11.5523 21 12 20.5523 12 20V17.2361L8.55279 15.1056C8.21404 15.2749 8 15.6212 8 16Z" fill="#FF9933"/>
  <path d="M20 8.76393L23.4472 10.8944C23.786 10.7251 24 10.3788 24 10V6C24 5.44772 23.5523 5 23 5H9C8.44772 5 8 5.44772 8 6C8 6.55228 8.44772 7 9 7H20V8.76393Z" fill="#FF9933"/>
</svg>
